<svg xmlns="http://www.w3.org/2000/svg" width="650" height="276" viewBox="0 0 650 276" font-family="Helvetica, Arial, sans-serif">
<rect width="100%" height="100%" fill="#ffffff"/>
<text x="12.0" y="20.0" font-size="13" text-anchor="start" fill="#222222" font-weight="bold">HOTA and IDF1 when tracking every n-th frame</text>
<rect x="50.0" y="30.0" width="10.0" height="10.0" fill="#0072B2"/>
<text x="64.0" y="38.0" font-size="10" text-anchor="start" fill="#777777" font-weight="normal">mine</text>
<rect x="94.8" y="30.0" width="10.0" height="10.0" fill="#E69F00"/>
<text x="108.8" y="38.0" font-size="10" text-anchor="start" fill="#777777" font-weight="normal">DeepSORT</text>
<line x1="50.0" y1="220.0" x2="280.0" y2="220.0" stroke="#e6e6e6" stroke-width="1.0"/>
<text x="44.0" y="223.0" font-size="10" text-anchor="end" fill="#777777" font-weight="normal">47</text>
<line x1="50.0" y1="198.6" x2="280.0" y2="198.6" stroke="#e6e6e6" stroke-width="1.0"/>
<text x="44.0" y="201.6" font-size="10" text-anchor="end" fill="#777777" font-weight="normal">48</text>
<line x1="50.0" y1="177.1" x2="280.0" y2="177.1" stroke="#e6e6e6" stroke-width="1.0"/>
<text x="44.0" y="180.1" font-size="10" text-anchor="end" fill="#777777" font-weight="normal">49</text>
<line x1="50.0" y1="155.7" x2="280.0" y2="155.7" stroke="#e6e6e6" stroke-width="1.0"/>
<text x="44.0" y="158.7" font-size="10" text-anchor="end" fill="#777777" font-weight="normal">50</text>
<line x1="50.0" y1="134.3" x2="280.0" y2="134.3" stroke="#e6e6e6" stroke-width="1.0"/>
<text x="44.0" y="137.3" font-size="10" text-anchor="end" fill="#777777" font-weight="normal">51</text>
<line x1="50.0" y1="112.9" x2="280.0" y2="112.9" stroke="#e6e6e6" stroke-width="1.0"/>
<text x="44.0" y="115.9" font-size="10" text-anchor="end" fill="#777777" font-weight="normal">52</text>
<line x1="50.0" y1="91.4" x2="280.0" y2="91.4" stroke="#e6e6e6" stroke-width="1.0"/>
<text x="44.0" y="94.4" font-size="10" text-anchor="end" fill="#777777" font-weight="normal">53</text>
<line x1="50.0" y1="70.0" x2="280.0" y2="70.0" stroke="#e6e6e6" stroke-width="1.0"/>
<text x="44.0" y="73.0" font-size="10" text-anchor="end" fill="#777777" font-weight="normal">54</text>
<text x="70.0" y="236.0" font-size="10" text-anchor="middle" fill="#777777" font-weight="normal">every frame</text>
<text x="165.0" y="236.0" font-size="10" text-anchor="middle" fill="#777777" font-weight="normal">every 2nd</text>
<text x="260.0" y="236.0" font-size="10" text-anchor="middle" fill="#777777" font-weight="normal">every 3rd</text>
<polyline points="70.0,100.4 165.0,135.4 260.0,162.1" fill="none" stroke="#0072B2" stroke-width="1.5"/>
<circle cx="70.0" cy="100.4" r="3" fill="#0072B2"/>
<text x="76.0" y="95.4" font-size="10" text-anchor="start" fill="#0072B2" font-weight="normal">52.6</text>
<circle cx="165.0" cy="135.4" r="3" fill="#0072B2"/>
<text x="171.0" y="130.4" font-size="10" text-anchor="start" fill="#0072B2" font-weight="normal">51.0</text>
<circle cx="260.0" cy="162.1" r="3" fill="#0072B2"/>
<text x="266.0" y="157.1" font-size="10" text-anchor="start" fill="#0072B2" font-weight="normal">49.7</text>
<polyline points="70.0,115.0 165.0,155.7 260.0,192.1" fill="none" stroke="#E69F00" stroke-width="1.5"/>
<circle cx="70.0" cy="115.0" r="3" fill="#E69F00"/>
<text x="76.0" y="110.0" font-size="10" text-anchor="start" fill="#E69F00" font-weight="normal">51.9</text>
<circle cx="165.0" cy="155.7" r="3" fill="#E69F00"/>
<text x="171.0" y="150.7" font-size="10" text-anchor="start" fill="#E69F00" font-weight="normal">50.0</text>
<circle cx="260.0" cy="192.1" r="3" fill="#E69F00"/>
<text x="266.0" y="187.1" font-size="10" text-anchor="start" fill="#E69F00" font-weight="normal">48.3</text>
<text x="50.0" y="60.0" font-size="11" text-anchor="start" fill="#222222" font-weight="bold">HOTA</text>
<line x1="350.0" y1="220.0" x2="580.0" y2="220.0" stroke="#e6e6e6" stroke-width="1.0"/>
<text x="344.0" y="223.0" font-size="10" text-anchor="end" fill="#777777" font-weight="normal">56</text>
<line x1="350.0" y1="198.6" x2="580.0" y2="198.6" stroke="#e6e6e6" stroke-width="1.0"/>
<text x="344.0" y="201.6" font-size="10" text-anchor="end" fill="#777777" font-weight="normal">57</text>
<line x1="350.0" y1="177.1" x2="580.0" y2="177.1" stroke="#e6e6e6" stroke-width="1.0"/>
<text x="344.0" y="180.1" font-size="10" text-anchor="end" fill="#777777" font-weight="normal">58</text>
<line x1="350.0" y1="155.7" x2="580.0" y2="155.7" stroke="#e6e6e6" stroke-width="1.0"/>
<text x="344.0" y="158.7" font-size="10" text-anchor="end" fill="#777777" font-weight="normal">59</text>
<line x1="350.0" y1="134.3" x2="580.0" y2="134.3" stroke="#e6e6e6" stroke-width="1.0"/>
<text x="344.0" y="137.3" font-size="10" text-anchor="end" fill="#777777" font-weight="normal">60</text>
<line x1="350.0" y1="112.9" x2="580.0" y2="112.9" stroke="#e6e6e6" stroke-width="1.0"/>
<text x="344.0" y="115.9" font-size="10" text-anchor="end" fill="#777777" font-weight="normal">61</text>
<line x1="350.0" y1="91.4" x2="580.0" y2="91.4" stroke="#e6e6e6" stroke-width="1.0"/>
<text x="344.0" y="94.4" font-size="10" text-anchor="end" fill="#777777" font-weight="normal">62</text>
<line x1="350.0" y1="70.0" x2="580.0" y2="70.0" stroke="#e6e6e6" stroke-width="1.0"/>
<text x="344.0" y="73.0" font-size="10" text-anchor="end" fill="#777777" font-weight="normal">63</text>
<text x="370.0" y="236.0" font-size="10" text-anchor="middle" fill="#777777" font-weight="normal">every frame</text>
<text x="465.0" y="236.0" font-size="10" text-anchor="middle" fill="#777777" font-weight="normal">every 2nd</text>
<text x="560.0" y="236.0" font-size="10" text-anchor="middle" fill="#777777" font-weight="normal">every 3rd</text>
<polyline points="370.0,97.4 465.0,121.9 560.0,147.6" fill="none" stroke="#0072B2" stroke-width="1.5"/>
<circle cx="370.0" cy="97.4" r="3" fill="#0072B2"/>
<text x="376.0" y="92.4" font-size="10" text-anchor="start" fill="#0072B2" font-weight="normal">61.7</text>
<circle cx="465.0" cy="121.9" r="3" fill="#0072B2"/>
<text x="471.0" y="116.9" font-size="10" text-anchor="start" fill="#0072B2" font-weight="normal">60.6</text>
<circle cx="560.0" cy="147.6" r="3" fill="#0072B2"/>
<text x="566.0" y="142.6" font-size="10" text-anchor="start" fill="#0072B2" font-weight="normal">59.4</text>
<polyline points="370.0,121.4 465.0,151.4 560.0,194.3" fill="none" stroke="#E69F00" stroke-width="1.5"/>
<circle cx="370.0" cy="121.4" r="3" fill="#E69F00"/>
<text x="376.0" y="116.4" font-size="10" text-anchor="start" fill="#E69F00" font-weight="normal">60.6</text>
<circle cx="465.0" cy="151.4" r="3" fill="#E69F00"/>
<text x="471.0" y="146.4" font-size="10" text-anchor="start" fill="#E69F00" font-weight="normal">59.2</text>
<circle cx="560.0" cy="194.3" r="3" fill="#E69F00"/>
<text x="566.0" y="189.3" font-size="10" text-anchor="start" fill="#E69F00" font-weight="normal">57.2</text>
<text x="350.0" y="60.0" font-size="11" text-anchor="start" fill="#222222" font-weight="bold">IDF1</text>
<text x="12.0" y="266.0" font-size="10" text-anchor="start" fill="#777777" font-weight="normal">Interpolation fills the skipped frames for scoring. Mine: 4 to 6 trained matchers per point.</text>
</svg>
