<svg xmlns="http://www.w3.org/2000/svg" width="610" height="624" viewBox="0 0 610 624" font-family="Helvetica, Arial, sans-serif">
<rect width="100%" height="100%" fill="#ffffff"/>
<text x="12.0" y="20.0" font-size="13" text-anchor="start" fill="#222222" font-weight="bold">mAP lost when the query sighting changes, by training recipe</text>
<rect x="190.0" y="30.0" width="10.0" height="10.0" fill="#999999"/>
<text x="204.0" y="38.0" font-size="10" text-anchor="start" fill="#777777" font-weight="normal">flips and shifts only</text>
<rect x="340.2" y="30.0" width="10.0" height="10.0" fill="#0072B2"/>
<text x="354.2" y="38.0" font-size="10" text-anchor="start" fill="#777777" font-weight="normal">+ lighting</text>
<rect x="422.2" y="30.0" width="10.0" height="10.0" fill="#D55E00"/>
<text x="436.2" y="38.0" font-size="10" text-anchor="start" fill="#777777" font-weight="normal">+ blocking</text>
<rect x="504.2" y="30.0" width="10.0" height="10.0" fill="#222222"/>
<text x="518.2" y="38.0" font-size="10" text-anchor="start" fill="#777777" font-weight="normal">full recipe</text>
<line x1="190.0" y1="42.0" x2="190.0" y2="576.0" stroke="#e6e6e6" stroke-width="1.0"/>
<text x="190.0" y="590.0" font-size="10" text-anchor="middle" fill="#777777" font-weight="normal">0</text>
<line x1="255.5" y1="42.0" x2="255.5" y2="576.0" stroke="#e6e6e6" stroke-width="1.0"/>
<text x="255.5" y="590.0" font-size="10" text-anchor="middle" fill="#777777" font-weight="normal">10</text>
<line x1="320.9" y1="42.0" x2="320.9" y2="576.0" stroke="#e6e6e6" stroke-width="1.0"/>
<text x="320.9" y="590.0" font-size="10" text-anchor="middle" fill="#777777" font-weight="normal">20</text>
<line x1="386.4" y1="42.0" x2="386.4" y2="576.0" stroke="#e6e6e6" stroke-width="1.0"/>
<text x="386.4" y="590.0" font-size="10" text-anchor="middle" fill="#777777" font-weight="normal">30</text>
<line x1="451.8" y1="42.0" x2="451.8" y2="576.0" stroke="#e6e6e6" stroke-width="1.0"/>
<text x="451.8" y="590.0" font-size="10" text-anchor="middle" fill="#777777" font-weight="normal">40</text>
<line x1="517.3" y1="42.0" x2="517.3" y2="576.0" stroke="#e6e6e6" stroke-width="1.0"/>
<text x="517.3" y="590.0" font-size="10" text-anchor="middle" fill="#777777" font-weight="normal">50</text>
<text x="182.0" y="72.5" font-size="11" text-anchor="end" fill="#222222" font-weight="normal">dark (x0.5)</text>
<rect x="190.0" y="46.0" width="104.7" height="9.0" fill="#999999"/>
<text x="298.7" y="54.0" font-size="10" text-anchor="start" fill="#777777" font-weight="normal">16.0</text>
<rect x="190.0" y="57.0" width="11.1" height="9.0" fill="#0072B2"/>
<text x="205.1" y="65.0" font-size="10" text-anchor="start" fill="#777777" font-weight="normal">1.7</text>
<rect x="190.0" y="68.0" width="133.5" height="9.0" fill="#D55E00"/>
<text x="327.5" y="76.0" font-size="10" text-anchor="start" fill="#777777" font-weight="normal">20.4</text>
<rect x="190.0" y="79.0" width="13.1" height="9.0" fill="#222222"/>
<text x="207.1" y="87.0" font-size="10" text-anchor="start" fill="#777777" font-weight="normal">2.0</text>
<text x="182.0" y="125.5" font-size="11" text-anchor="end" fill="#222222" font-weight="normal">overexposed (x1.6)</text>
<rect x="190.0" y="99.0" width="81.2" height="9.0" fill="#999999"/>
<text x="275.2" y="107.0" font-size="10" text-anchor="start" fill="#777777" font-weight="normal">12.4</text>
<rect x="190.0" y="110.0" width="15.1" height="9.0" fill="#0072B2"/>
<text x="209.1" y="118.0" font-size="10" text-anchor="start" fill="#777777" font-weight="normal">2.3</text>
<rect x="190.0" y="121.0" width="123.7" height="9.0" fill="#D55E00"/>
<text x="317.7" y="129.0" font-size="10" text-anchor="start" fill="#777777" font-weight="normal">18.9</text>
<rect x="190.0" y="132.0" width="24.9" height="9.0" fill="#222222"/>
<text x="218.9" y="140.0" font-size="10" text-anchor="start" fill="#777777" font-weight="normal">3.8</text>
<text x="182.0" y="178.5" font-size="11" text-anchor="end" fill="#222222" font-weight="normal">low contrast (glare)</text>
<rect x="190.0" y="152.0" width="225.2" height="9.0" fill="#999999"/>
<text x="419.2" y="160.0" font-size="10" text-anchor="start" fill="#777777" font-weight="normal">34.4</text>
<rect x="190.0" y="163.0" width="44.5" height="9.0" fill="#0072B2"/>
<text x="238.5" y="171.0" font-size="10" text-anchor="start" fill="#777777" font-weight="normal">6.8</text>
<rect x="190.0" y="174.0" width="297.8" height="9.0" fill="#D55E00"/>
<text x="491.8" y="182.0" font-size="10" text-anchor="start" fill="#777777" font-weight="normal">45.5</text>
<rect x="190.0" y="185.0" width="66.1" height="9.0" fill="#222222"/>
<text x="260.1" y="193.0" font-size="10" text-anchor="start" fill="#777777" font-weight="normal">10.1</text>
<text x="182.0" y="231.5" font-size="11" text-anchor="end" fill="#222222" font-weight="normal">warm cast</text>
<rect x="190.0" y="205.0" width="138.1" height="9.0" fill="#999999"/>
<text x="332.1" y="213.0" font-size="10" text-anchor="start" fill="#777777" font-weight="normal">21.1</text>
<rect x="190.0" y="216.0" width="7.2" height="9.0" fill="#0072B2"/>
<text x="201.2" y="224.0" font-size="10" text-anchor="start" fill="#777777" font-weight="normal">1.1</text>
<rect x="190.0" y="227.0" width="213.4" height="9.0" fill="#D55E00"/>
<text x="407.4" y="235.0" font-size="10" text-anchor="start" fill="#777777" font-weight="normal">32.6</text>
<rect x="190.0" y="238.0" width="8.5" height="9.0" fill="#222222"/>
<text x="202.5" y="246.0" font-size="10" text-anchor="start" fill="#777777" font-weight="normal">1.3</text>
<text x="182.0" y="284.5" font-size="11" text-anchor="end" fill="#222222" font-weight="normal">cool cast</text>
<rect x="190.0" y="258.0" width="244.8" height="9.0" fill="#999999"/>
<text x="438.8" y="266.0" font-size="10" text-anchor="start" fill="#777777" font-weight="normal">37.4</text>
<rect x="190.0" y="269.0" width="2.0" height="9.0" fill="#0072B2"/>
<text x="196.0" y="277.0" font-size="10" text-anchor="start" fill="#777777" font-weight="normal">0.3</text>
<rect x="190.0" y="280.0" width="323.3" height="9.0" fill="#D55E00"/>
<text x="517.3" y="288.0" font-size="10" text-anchor="start" fill="#777777" font-weight="normal">49.4</text>
<rect x="190.0" y="291.0" width="10.5" height="9.0" fill="#222222"/>
<text x="204.5" y="299.0" font-size="10" text-anchor="start" fill="#777777" font-weight="normal">1.6</text>
<text x="182.0" y="337.5" font-size="11" text-anchor="end" fill="#222222" font-weight="normal">hard shadow over one side</text>
<rect x="190.0" y="311.0" width="77.9" height="9.0" fill="#999999"/>
<text x="271.9" y="319.0" font-size="10" text-anchor="start" fill="#777777" font-weight="normal">11.9</text>
<rect x="190.0" y="322.0" width="34.7" height="9.0" fill="#0072B2"/>
<text x="228.7" y="330.0" font-size="10" text-anchor="start" fill="#777777" font-weight="normal">5.3</text>
<rect x="190.0" y="333.0" width="55.6" height="9.0" fill="#D55E00"/>
<text x="249.6" y="341.0" font-size="10" text-anchor="start" fill="#777777" font-weight="normal">8.5</text>
<rect x="190.0" y="344.0" width="32.7" height="9.0" fill="#222222"/>
<text x="226.7" y="352.0" font-size="10" text-anchor="start" fill="#777777" font-weight="normal">5.0</text>
<text x="182.0" y="390.5" font-size="11" text-anchor="end" fill="#222222" font-weight="normal">blocked below (40%)</text>
<rect x="190.0" y="364.0" width="113.2" height="9.0" fill="#999999"/>
<text x="307.2" y="372.0" font-size="10" text-anchor="start" fill="#777777" font-weight="normal">17.3</text>
<rect x="190.0" y="375.0" width="101.5" height="9.0" fill="#0072B2"/>
<text x="295.5" y="383.0" font-size="10" text-anchor="start" fill="#777777" font-weight="normal">15.5</text>
<rect x="190.0" y="386.0" width="127.6" height="9.0" fill="#D55E00"/>
<text x="321.6" y="394.0" font-size="10" text-anchor="start" fill="#777777" font-weight="normal">19.5</text>
<rect x="190.0" y="397.0" width="126.3" height="9.0" fill="#222222"/>
<text x="320.3" y="405.0" font-size="10" text-anchor="start" fill="#777777" font-weight="normal">19.3</text>
<text x="182.0" y="443.5" font-size="11" text-anchor="end" fill="#222222" font-weight="normal">blocked above (40%)</text>
<rect x="190.0" y="417.0" width="326.0" height="9.0" fill="#999999"/>
<text x="520.0" y="425.0" font-size="10" text-anchor="start" fill="#777777" font-weight="normal">49.8</text>
<rect x="190.0" y="428.0" width="343.0" height="9.0" fill="#0072B2"/>
<text x="537.0" y="436.0" font-size="10" text-anchor="start" fill="#777777" font-weight="normal">52.4</text>
<rect x="190.0" y="439.0" width="268.4" height="9.0" fill="#D55E00"/>
<text x="462.4" y="447.0" font-size="10" text-anchor="start" fill="#777777" font-weight="normal">41.0</text>
<rect x="190.0" y="450.0" width="307.0" height="9.0" fill="#222222"/>
<text x="501.0" y="458.0" font-size="10" text-anchor="start" fill="#777777" font-weight="normal">46.9</text>
<text x="182.0" y="496.5" font-size="11" text-anchor="end" fill="#222222" font-weight="normal">blocked side (35%)</text>
<rect x="190.0" y="470.0" width="36.0" height="9.0" fill="#999999"/>
<text x="230.0" y="478.0" font-size="10" text-anchor="start" fill="#777777" font-weight="normal">5.5</text>
<rect x="190.0" y="481.0" width="47.1" height="9.0" fill="#0072B2"/>
<text x="241.1" y="489.0" font-size="10" text-anchor="start" fill="#777777" font-weight="normal">7.2</text>
<rect x="190.0" y="492.0" width="48.4" height="9.0" fill="#D55E00"/>
<text x="242.4" y="500.0" font-size="10" text-anchor="start" fill="#777777" font-weight="normal">7.4</text>
<rect x="190.0" y="503.0" width="64.1" height="9.0" fill="#222222"/>
<text x="258.1" y="511.0" font-size="10" text-anchor="start" fill="#777777" font-weight="normal">9.8</text>
<text x="182.0" y="549.5" font-size="11" text-anchor="end" fill="#222222" font-weight="normal">blocked anywhere (25-40%)</text>
<rect x="190.0" y="523.0" width="238.3" height="9.0" fill="#999999"/>
<text x="432.3" y="531.0" font-size="10" text-anchor="start" fill="#777777" font-weight="normal">36.4</text>
<rect x="190.0" y="534.0" width="252.0" height="9.0" fill="#0072B2"/>
<text x="446.0" y="542.0" font-size="10" text-anchor="start" fill="#777777" font-weight="normal">38.5</text>
<rect x="190.0" y="545.0" width="151.2" height="9.0" fill="#D55E00"/>
<text x="345.2" y="553.0" font-size="10" text-anchor="start" fill="#777777" font-weight="normal">23.1</text>
<rect x="190.0" y="556.0" width="170.8" height="9.0" fill="#222222"/>
<text x="364.8" y="564.0" font-size="10" text-anchor="start" fill="#777777" font-weight="normal">26.1</text>
<line x1="190.0" y1="42.0" x2="190.0" y2="576.0" stroke="#777777" stroke-width="1.0"/>
<text x="12.0" y="614.0" font-size="10" text-anchor="start" fill="#777777" font-weight="normal">Retraining the full recipe with another seed moves each bar by up to 4.6. The gallery stays unchanged.</text>
</svg>
